<svg width="33" height="32" viewBox="0 0 33 32" fill="none" xmlns="http://www.w3.org/2000/svg">
<g clip-path="url(#clip0_1_777)">
<path d="M12.5 25.3333C6.76667 27.1999 6.76667 21.9999 4.5 21.3333M20.5 27.9999V23.3333C20.5 21.9999 20.6333 21.4666 19.8333 20.6666C23.5667 20.2666 27.1667 18.7999 27.1667 12.6666C27.165 11.0732 26.5434 9.54301 25.4333 8.39993C25.954 7.01589 25.906 5.4821 25.3 4.13327C25.3 4.13327 23.8333 3.73327 20.6333 5.8666C17.923 5.16072 15.077 5.16072 12.3667 5.8666C9.16667 3.73327 7.7 4.13327 7.7 4.13327C7.09397 5.4821 7.04604 7.01589 7.56667 8.39993C6.4566 9.54301 5.83496 11.0732 5.83333 12.6666C5.83333 18.7999 9.43333 20.2666 13.1667 20.6666C12.3667 21.4666 12.3667 22.2666 12.5 23.3333V27.9999" stroke="#FF577F" stroke-width="2" stroke-linecap="round" stroke-linejoin="round"/>
</g>
<defs>
<clipPath id="clip0_1_777">
<rect width="32" height="32" fill="white" transform="translate(0.5)"/>
</clipPath>
</defs>
</svg>
