<?xml version="1.0" encoding="UTF-8" standalone="no"?>
<svg
   width="79.779274"
   height="37.677177"
   viewBox="0 0 79.779276 37.677177"
   fill="none"
   version="1.1"
   id="svg12"
   sodipodi:docname="Logo Alura Include.svg"
   inkscape:version="1.3.2 (091e20ef0f, 2023-11-25)"
   xmlns:inkscape="http://www.inkscape.org/namespaces/inkscape"
   xmlns:sodipodi="http://sodipodi.sourceforge.net/DTD/sodipodi-0.dtd"
   xmlns="http://www.w3.org/2000/svg"
   xmlns:svg="http://www.w3.org/2000/svg">
  <sodipodi:namedview
     id="namedview12"
     pagecolor="#ffffff"
     bordercolor="#000000"
     borderopacity="0.25"
     inkscape:showpageshadow="2"
     inkscape:pageopacity="0.0"
     inkscape:pagecheckerboard="0"
     inkscape:deskcolor="#d1d1d1"
     inkscape:zoom="5.8769231"
     inkscape:cx="30.032722"
     inkscape:cy="14.718586"
     inkscape:window-width="1366"
     inkscape:window-height="711"
     inkscape:window-x="0"
     inkscape:window-y="33"
     inkscape:window-maximized="1"
     inkscape:current-layer="svg12" />
  <g
     clip-path="url(#clip0_1_734)"
     id="g12"
     transform="matrix(0.61717084,0,0,0.61717084,-0.45293366,-0.31574233)">
    <path
       d="M 67.1175,10.389 C 65.8853,9.41533 64.0803,8.89371 61.5465,8.89371 60.401,8.87632 59.2382,8.98065 58.1101,9.20668 c -0.8156,0.22603 -1.5966,0.59117 -2.2735,1.09542 -0.5727,0.4347 -1.0239,1.0258 -1.3016,1.6865 -0.2604,0.6434 -0.3992,1.3215 -0.3818,2.017 v 0.7128 c -0.0695,0.1913 0.0694,0.3304 0.2603,0.3304 h 3.1066 c 0.1388,-0.0174 0.2429,-0.1217 0.2603,-0.2608 0.0521,-0.6955 0.3297,-1.3562 0.781,-1.8778 0.5206,-0.5912 1.4925,-0.9042 2.9156,-0.9042 0.6075,-0.0174 1.2323,0.0696 1.805,0.2608 0.3992,0.1565 0.781,0.3652 1.0934,0.6434 0.4686,0.4694 0.7462,1.0954 0.7809,1.7561 v 0.9041 c 0,0.313 -0.0694,0.6259 -0.1909,0.9041 -0.1041,0.2435 -0.2603,0.4695 -0.4512,0.6434 -0.1388,0.1912 -0.3124,0.3303 -0.5207,0.452 -0.1388,0.1044 -0.295,0.1913 -0.4512,0.2608 -0.0694,0.0696 -0.3297,0.1391 -0.8504,0.3304 -0.5206,0.1913 -0.9719,0.3825 -1.614,0.5912 -0.6422,0.2086 -1.3017,0.3825 -1.9438,0.6433 -0.6421,0.2608 -1.2322,0.3825 -1.7529,0.5912 -1.0239,0.3303 -1.8743,1.0258 -2.395,1.9473 -0.538,0.8868 -0.833,1.8952 -0.833,2.9211 v 2.0169 c 0.0347,0.5738 0.1562,1.1475 0.3297,1.6866 0.2083,0.6607 0.5901,1.2344 1.0934,1.6865 0.6248,0.6086 1.371,1.0432 2.2041,1.3041 1.1975,0.3651 2.4471,0.539 3.6966,0.5216 1.2496,0.0521 2.4992,-0.1217 3.6967,-0.5216 0.8331,-0.2609 1.614,-0.7129 2.2562,-1.3041 0.5206,-0.4521 0.9024,-1.0258 1.1107,-1.6865 0.2083,-0.5391 0.3124,-1.1128 0.3298,-1.6866 V 14.162 c 0,-1.4779 -0.6422,-2.8515 -1.7529,-3.773 z m -2.7248,17.5785 c -0.5206,0.5216 -1.5619,0.8346 -2.9157,0.8346 -1.3537,0 -2.3255,-0.2608 -2.8462,-0.7825 -0.5727,-0.6954 -0.8504,-1.5648 -0.781,-2.4689 0,-0.4521 0.0694,-0.9737 0.3298,-1.3562 0.2082,-0.3304 0.4338,-0.6434 0.7115,-0.9042 0.2604,-0.1912 0.6422,-0.3825 0.9719,-0.5911 0.3818,-0.1913 0.9719,-0.3304 1.4231,-0.5217 0.4513,-0.2086 0.9372,-0.3825 1.4232,-0.5216 0.5206,-0.1217 0.9719,-0.3303 1.4231,-0.452 0.2256,-0.0696 0.4512,-0.1739 0.6421,-0.3304 0.243,-0.1391 0.3992,-0.3825 0.4513,-0.6433 l -0.0695,5.3205 c 0.0695,0.8693 -0.2082,1.7387 -0.7636,2.4168 z"
       fill="#b9b9b9"
       id="path1" />
    <path
       d="m 50.5431,8.89369 h 2.0653 c 0.1388,0.01739 0.243,0.12171 0.2603,0.26081 v 0.05216 l -0.7115,2.72984 c 0,0.1391 -0.1215,0.1912 -0.2604,0.1912 h -1.4231 c -0.6421,-0.0174 -1.2843,0.087 -1.8743,0.3304 -0.4166,0.1565 -0.7984,0.3999 -1.0934,0.7129 -0.2256,0.2434 -0.4165,0.5216 -0.5207,0.8345 -0.0694,0.2782 -0.1215,0.5564 -0.1388,0.8346 v 16.8656 c 0.0173,0.1739 -0.1215,0.313 -0.2777,0.3304 -0.0174,0 -0.0174,0 -0.0347,0 H 43.4275 C 43.2713,32.0187 43.1498,31.8796 43.1672,31.7057 V 14.1446 c 0,-0.452 0.0694,-0.9215 0.1909,-1.3562 0.1215,-0.6607 0.4512,-1.2692 0.9025,-1.7561 0.6247,-0.6433 1.371,-1.16492 2.2041,-1.49528 1.2842,-0.50423 2.69,-0.73026 4.0784,-0.64333 z"
       fill="#b9b9b9"
       id="path2" />
    <path
       d="m 39.9914,26.0027 v 0.7824 c 0,0.4868 -0.0694,0.9563 -0.1909,1.4258 -0.1388,0.6607 -0.4512,1.2518 -0.9025,1.7561 -0.6248,0.6433 -1.371,1.1649 -2.2041,1.4953 -1.3016,0.4694 -2.69,0.6954 -4.0784,0.6433 -1.3885,0.0348 -2.7769,-0.1739 -4.0785,-0.6433 -0.8331,-0.313 -1.5967,-0.8346 -2.2041,-1.4953 -0.4512,-0.4869 -0.7636,-1.0954 -0.9025,-1.7561 -0.1388,-0.4521 -0.1388,-0.9042 -0.1909,-1.3563 V 9.15446 C 25.2222,8.98059 25.361,8.84149 25.5172,8.8241 c 0.0173,0 0.0173,0 0.0347,0 h 3.0372 c 0.1735,-0.01738 0.3123,0.12171 0.3297,0.29558 0,0.01739 0,0.01739 0,0.03478 V 25.6375 c 0.0174,0.4173 0.0521,0.8172 0.1388,1.2345 0.1042,0.3304 0.2951,0.6434 0.5207,0.9042 0.295,0.3303 0.6769,0.5737 1.0934,0.7128 0.6248,0.2087 1.2843,0.313 1.9438,0.3304 0.6768,0.0174 1.371,-0.0869 2.0132,-0.3304 0.4165,-0.1217 0.7983,-0.3477 1.0933,-0.6433 0.2604,-0.226 0.4339,-0.5216 0.5207,-0.852 0.1388,-0.4172 0.1909,-0.8519 0.1909,-1.304 V 9.15446 C 36.4162,8.99797 36.5377,8.84149 36.6939,8.8241 h 3.1066 c 0.1736,-0.01738 0.3124,0.12171 0.3297,0.29558 0,0.01739 0,0.01739 0,0.03478 z"
       fill="#b9b9b9"
       id="path3" />
    <path
       d="m 18.818,0.51307 h 3.0372 c 0.1735,-0.017387 0.3124,0.121711 0.3297,0.278196 0,0.017387 0,0.034774 0,0.034774 V 31.7753 c 0.0174,0.1739 -0.1215,0.313 -0.295,0.3303 -0.0174,0 -0.0174,0 -0.0347,0 H 18.818 c -0.1735,0.0174 -0.3124,-0.1217 -0.3297,-0.2955 0,-0.0174 0,-0.0174 0,-0.0348 V 0.82604 C 18.5577,0.634781 18.6792,0.51307 18.818,0.51307 Z"
       fill="#b9b9b9"
       id="path4" />
    <path
       d="M 0.751221,40.1733 C 0.768576,39.8603 1.01155,39.5995 1.3413,39.5822 h 3.69665 c 0.31239,0.0173 0.57272,0.2608 0.59008,0.5911 V 60.6555 C 5.61067,60.9684 5.3677,61.2292 5.03795,61.2466 H 1.3413 C 1.0289,61.2292 0.768576,60.9858 0.751221,60.6555 Z"
       fill="#b9b9b9"
       id="path5" />
    <path
       d="m 10.9041,39.843 c 0.0173,-0.313 0.2776,-0.5564 0.59,-0.5564 h 0.7637 l 12.3221,11.8755 h 0.0347 V 40.1734 c 0,-0.3304 0.2604,-0.5912 0.5901,-0.5912 h 3.6967 c 0.3124,0.0174 0.5727,0.2608 0.59,0.5912 v 20.8125 c -0.0173,0.3129 -0.2776,0.5564 -0.59,0.5564 h -0.486 C 28.2766,61.5249 28.1377,61.4727 28.0163,61.3858 L 15.8156,49.1104 h -0.0347 v 11.5451 c 0,0.3304 -0.2604,0.5912 -0.5901,0.5912 h -3.662 c -0.3124,-0.0174 -0.5727,-0.2608 -0.59,-0.5912 z"
       fill="#b9b9b9"
       id="path6" />
    <path
       d="m 44.3822,39.2866 c 3.0893,0 5.3801,0.9563 7.4628,2.8689 0.2429,0.1913 0.2776,0.5564 0.0867,0.8172 -0.0173,0.0174 -0.0347,0.0348 -0.052,0.0522 l -2.4124,2.5211 c -0.2083,0.2087 -0.5554,0.2087 -0.7636,0 -1.1455,-1.0084 -2.638,-1.5822 -4.1653,-1.5822 -3.4884,0 -6.0569,2.9036 -6.0569,6.3637 0,3.4427 2.6033,6.2768 6.0743,6.2768 1.5099,0 2.9677,-0.5216 4.1305,-1.4779 0.243,-0.1913 0.5727,-0.1739 0.7984,0.0347 l 2.4123,2.556 c 0.2083,0.2434 0.1909,0.6085 -0.0347,0.8346 -2.0132,1.9473 -4.7032,3.0253 -7.4974,3.0079 -6.1437,0 -11.1073,-4.9901 -11.1073,-11.1278 0,-6.1377 4.9809,-11.1452 11.1246,-11.1452 z"
       fill="#b9b9b9"
       id="path7" />
    <path
       d="m 55.5762,40.1733 c 0,-0.3303 0.2603,-0.5911 0.5901,-0.5911 h 3.6792 c 0.3124,0.0173 0.5728,0.2608 0.5901,0.5911 v 16.5179 h 7.3413 c 0.3297,0 0.59,0.2608 0.59,0.5911 v 3.3732 c 0,0.3303 -0.2603,0.5911 -0.59,0.5911 H 56.1663 c -0.3298,0 -0.5901,-0.2608 -0.5901,-0.5911 z"
       fill="#b9b9b9"
       id="path8" />
    <path
       d="m 70.7966,40.1733 c 0.0174,-0.313 0.2604,-0.5738 0.5901,-0.5911 h 3.8008 c 0.3297,0 0.5901,0.2608 0.5901,0.5911 v 12.5188 c 0,2.1734 1.5966,3.8947 3.8008,3.8947 2.2214,0 3.8528,-1.7387 3.8528,-3.8947 V 40.1733 c 0,-0.3303 0.2603,-0.5911 0.5901,-0.5911 h 3.8008 c 0.3123,0.0173 0.5727,0.2608 0.59,0.5911 v 12.7796 c 0,4.6946 -3.9569,8.6067 -8.8337,8.6067 -4.8421,0 -8.7644,-3.8947 -8.7644,-8.6067 z"
       fill="#b9b9b9"
       id="path9" />
    <path
       d="m 93.3757,40.1733 c 0,-0.313 0.243,-0.5738 0.5554,-0.5911 h 7.5319 c 5.953,0 10.83,4.851 10.83,10.7974 0,5.9986 -4.86,10.8496 -10.83,10.8496 H 93.9311 C 93.6187,61.2119 93.3757,60.951 93.3757,60.6381 Z m 7.7753,16.5005 c 3.488,0 6.022,-2.7472 6.022,-6.2768 0,-3.4948 -2.534,-6.242 -6.022,-6.242 h -2.9679 v 12.5188 z"
       fill="#b9b9b9"
       id="path10" />
    <path
       d="m 116.076,40.1733 c 0,-0.3303 0.261,-0.5911 0.59,-0.5911 h 12.774 c 0.33,0 0.59,0.2608 0.59,0.5911 v 3.3731 c 0,0.3304 -0.26,0.5912 -0.59,0.5912 h -8.556 v 3.8426 h 7.046 c 0.312,0.0174 0.573,0.2608 0.59,0.5911 v 3.3732 c 0,0.3303 -0.26,0.5911 -0.59,0.5911 h -7.046 v 4.173 h 8.556 c 0.33,0 0.59,0.2608 0.59,0.5911 v 3.3731 c 0,0.3304 -0.26,0.5912 -0.59,0.5912 h -12.774 c -0.329,0 -0.59,-0.2608 -0.59,-0.5912 z"
       fill="#b9b9b9"
       id="path11" />
    <path
       d="M 13.6982,10.389 C 12.466,9.41533 10.661,8.89371 8.12719,8.89371 6.98175,8.87632 5.81895,8.98065 4.69087,9.20668 3.85782,9.39794 3.09419,9.78046 2.43469,10.3021 1.86197,10.7368 1.41074,11.3279 1.13306,11.9886 0.872728,12.632 0.751242,13.3101 0.751242,14.0056 v 0.7824 c -0.017355,0.1738 0.121486,0.3129 0.277678,0.3303 0.01736,0 0.01736,0 0.03472,0 h 3.03715 c 0.13884,-0.0174 0.24297,-0.1217 0.26033,-0.2608 0.05206,-0.6955 0.32975,-1.3562 0.78098,-1.8778 0.52066,-0.5912 1.49255,-0.9041 2.91567,-0.9041 0.60743,-0.0696 1.23222,0 1.82229,0.1912 0.39914,0.1565 0.78094,0.3652 1.09334,0.6434 0.4686,0.452 0.7463,1.0954 0.781,1.7561 v 0.9041 c 0,0.313 -0.0694,0.6259 -0.1909,0.9041 -0.1041,0.2435 -0.2603,0.4695 -0.4512,0.6434 -0.1389,0.1912 -0.3124,0.3303 -0.5207,0.452 -0.1388,0.1044 -0.295,0.1913 -0.4512,0.2608 -0.0694,0.0696 -0.32976,0.1391 -0.83306,0.3304 -0.5033,0.1913 -0.97189,0.3825 -1.61403,0.5912 -0.64214,0.2086 -1.28428,0.3825 -1.94378,0.6433 -0.65949,0.2608 -1.24957,0.3825 -1.77022,0.5912 -1.00661,0.3303 -1.87436,1.0258 -2.39502,1.9473 -0.53801,0.8868 -0.833048,1.8952 -0.850403,2.9211 v 1.9995 c 0.03471,0.5738 0.156197,1.1476 0.329753,1.6866 0.20826,0.6607 0.59007,1.2345 1.09337,1.6865 0.62479,0.6086 1.37106,1.0433 2.20411,1.3041 1.19751,0.3651 2.44708,0.539 3.69665,0.5216 1.24957,0.0521 2.49913,-0.1217 3.69663,-0.5216 0.8331,-0.2608 1.6141,-0.7129 2.2736,-1.3041 0.5206,-0.452 0.9024,-1.0258 1.0933,-1.6865 0.2083,-0.539 0.3124,-1.1128 0.3298,-1.6866 V 14.1446 c 0,-1.4605 -0.6422,-2.8341 -1.7529,-3.7556 z m -2.6553,17.5785 c -0.5207,0.5216 -1.49258,0.8346 -2.91571,0.8346 -1.42312,0 -2.39501,-0.2608 -2.91567,-0.7825 -0.57272,-0.6954 -0.8504,-1.5648 -0.78098,-2.4689 0,-0.4695 0.12149,-0.9389 0.31239,-1.3562 0.20827,-0.3304 0.43388,-0.626 0.71156,-0.9042 0.26033,-0.1912 0.64215,-0.3825 0.97189,-0.5911 0.38182,-0.1913 0.9719,-0.3304 1.42313,-0.5217 0.45123,-0.2086 0.93718,-0.3825 1.42312,-0.5216 0.52066,-0.1217 0.97187,-0.3303 1.42317,-0.452 0.2256,-0.0696 0.4512,-0.1739 0.6421,-0.3304 0.243,-0.1391 0.3992,-0.3825 0.4512,-0.6433 v 5.3205 c 0.1215,0.8867 -0.1735,1.7561 -0.7462,2.4168 z"
       fill="#b9b9b9"
       id="path12" />
  </g>
  <defs
     id="defs12">
    <clipPath
       id="clip0_1_734">
      <rect
         width="130"
         height="62"
         fill="#ffffff"
         id="rect12"
         x="0"
         y="0" />
    </clipPath>
  </defs>
</svg>
